<?xml version="1.0" encoding="UTF-8" standalone="no"?>
<!-- Created with Inkscape (http://www.inkscape.org/) -->

<svg
   version="1.1"
   id="svg2"
   xml:space="preserve"
   width="550"
   height="550"
   viewBox="0 0 550 550"
   sodipodi:docname="Feed Icon.svg"
   inkscape:version="1.1 (c4e8f9ed74, 2021-05-24)"
   xmlns:inkscape="http://www.inkscape.org/namespaces/inkscape"
   xmlns:sodipodi="http://sodipodi.sourceforge.net/DTD/sodipodi-0.dtd"
   xmlns="http://www.w3.org/2000/svg"
   xmlns:svg="http://www.w3.org/2000/svg"><defs
     id="defs6"><rect
       x="950.76118"
       y="214.0092"
       width="451.21121"
       height="124.52811"
       id="rect29399" /><rect
       x="120.34659"
       y="516.26733"
       width="412.04822"
       height="102.48445"
       id="rect8373" /><inkscape:path-effect
       effect="fillet_chamfer"
       id="path-effect859"
       is_visible="true"
       lpeversion="1"
       satellites_param="F,0,0,1,0,164.57701,0,1 @ F,0,0,1,0,157.49201,0,1 @ F,0,0,1,0,150.53482,0,1 @ F,0,0,1,0,148.25399,0,1"
       unit="px"
       method="auto"
       mode="F"
       radius="0"
       chamfer_steps="1"
       flexible="false"
       use_knot_distance="true"
       apply_no_radius="true"
       apply_with_radius="true"
       only_selected="false"
       hide_knots="false" /><clipPath
       clipPathUnits="userSpaceOnUse"
       id="clipPath18"><path
         d="M 0,500 H 500 V 0 H 0 Z"
         id="path16" /></clipPath></defs><sodipodi:namedview
     id="namedview4"
     pagecolor="#505050"
     bordercolor="#eeeeee"
     borderopacity="1"
     inkscape:pageshadow="0"
     inkscape:pageopacity="0"
     inkscape:pagecheckerboard="0"
     showgrid="false"
     height="550px"
     inkscape:zoom="0.89399997"
     inkscape:cx="199.66444"
     inkscape:cy="333.33334"
     inkscape:window-width="2560"
     inkscape:window-height="1011"
     inkscape:window-x="0"
     inkscape:window-y="0"
     inkscape:window-maximized="1"
     inkscape:current-layer="g8" /><g
     id="g8"
     inkscape:groupmode="layer"
     inkscape:label="mushroom-2389225"
     transform="matrix(1.3333333,0,0,-1.3333333,0,666.66667)"><path
       d="m 168.38495,91.993501 h 88.35922 A 157.49201,157.49201 45 0 1 414.23618,249.48551 V 350.44502 A 150.53482,150.53482 135 0 1 263.70136,500.97984 H 152.06193 A 148.25399,148.25399 45 0 1 3.8079419,352.72585 l 0,-96.15534 A 164.57701,164.57701 135 0 1 168.38495,91.993501 Z"
       style="fill:#00c400;fill-opacity:1;fill-rule:nonzero;stroke:none;stroke-width:0.81941"
       id="path10"
       inkscape:path-effect="#path-effect859"
       inkscape:original-d="M 3.8079419,91.993501 H 414.23618 V 500.97984 H 3.8079419 Z" /><g
       id="g12"
       transform="matrix(1.6824214,0,0,1.6569854,-216.83147,-108.48513)"><g
         id="g14"
         clip-path="url(#clipPath18)"><g
           id="g20"
           transform="translate(345.6826,247.1562)"><path
             d="m 0,0 c -2.439,-2.98 -6.046,-4.689 -9.893,-4.689 h -163.579 c -3.847,0 -7.453,1.709 -9.893,4.689 -2.395,2.924 -3.344,6.708 -2.605,10.383 6.866,34.136 31.642,61.1 63.308,71.934 2.72,-13.898 14.953,-24.388 29.646,-24.388 14.988,0 27.412,10.914 29.794,25.226 15.329,-4.775 29.133,-13.312 40.227,-24.61 -10.478,-3.593 -18.018,-13.512 -18.018,-25.209 0,-14.725 11.938,-26.663 26.663,-26.663 6.234,0 11.962,2.145 16.501,5.729 0.151,-0.673 0.317,-1.34 0.453,-2.02 C 3.344,6.708 2.395,2.924 0,0 m -59.35,-64.084 c 0,-16.421 -13.359,-29.78 -29.779,-29.78 h -7.774 c -16.42,0 -29.78,13.359 -29.78,29.78 v 51.039 h 9.752 v -22.611 c 0,-1.657 1.344,-3 3,-3 1.657,0 3,1.343 3,3 v 22.611 h 7.748 v -11.611 c 0,-1.657 1.344,-3 3,-3 1.657,0 3,1.343 3,3 v 11.611 h 7.748 v -22.611 c 0,-1.657 1.343,-3 3,-3 1.658,0 3,1.343 3,3 v 22.611 h 7.748 v -12.611 c 0,-1.657 1.343,-3 3,-3 1.658,0 3,1.343 3,3 v 12.611 H -59.35 Z M 10.448,11.96 c -9.734,48.399 -52.686,83.528 -102.131,83.528 -49.443,0 -92.396,-35.128 -102.13,-83.528 -1.214,-6.035 0.338,-12.242 4.258,-17.029 3.966,-4.843 9.828,-7.62 16.083,-7.62 h 38.789 v -51.395 c 0,-20.832 16.948,-37.78 37.78,-37.78 h 7.774 c 20.832,0 37.779,16.948 37.779,37.78 v 51.395 h 41.457 c 6.255,0 12.117,2.777 16.083,7.621 3.92,4.787 5.472,10.993 4.258,17.028"
             style="fill:#333333;fill-opacity:1;fill-rule:nonzero;stroke:none"
             id="path22" /></g><g
           id="g24"
           transform="translate(197.6675,252.7554)"><path
             d="m 0,0 h -14.466 c -2.976,0 -5.766,1.322 -7.655,3.628 -1.853,2.263 -2.587,5.192 -2.016,8.035 0.219,1.087 0.467,2.187 0.736,3.269 0.4,1.608 -0.579,3.235 -2.187,3.635 -1.606,0.4 -3.236,-0.578 -3.636,-2.187 -0.291,-1.169 -0.558,-2.358 -0.795,-3.534 -0.928,-4.614 0.259,-9.359 3.256,-13.019 C -23.73,-3.876 -19.249,-6 -14.466,-6 H 0 c 1.657,0 3,1.343 3,3 0,1.657 -1.343,3 -3,3"
             style="fill:#333333;fill-opacity:1;fill-rule:nonzero;stroke:none"
             id="path26" /></g><g
           id="g28"
           transform="translate(174.4526,278.2212)"><path
             d="m 0,0 c 0.396,-0.176 0.809,-0.259 1.216,-0.259 1.149,0 2.246,0.665 2.743,1.783 C 4.463,2.659 5.004,3.798 5.567,4.91 6.316,6.388 5.726,8.193 4.248,8.942 2.769,9.693 0.964,9.1 0.216,7.622 -0.394,6.419 -0.979,5.187 -1.524,3.959 -2.197,2.445 -1.515,0.672 0,0"
             style="fill:#333333;fill-opacity:1;fill-rule:nonzero;stroke:none"
             id="path30" /></g><g
           id="g32"
           transform="translate(257.9687,164.9385)"><path
             d="m 0,0 c -1.063,-0.422 -2.168,-0.782 -3.281,-1.07 -1.604,-0.416 -2.567,-2.054 -2.152,-3.658 0.351,-1.351 1.569,-2.248 2.903,-2.248 0.249,0 0.502,0.032 0.755,0.097 1.351,0.351 2.693,0.788 3.986,1.301 1.54,0.61 2.294,2.354 1.684,3.894 C 3.284,-0.143 1.539,0.607 0,0"
             style="fill:#333333;fill-opacity:1;fill-rule:nonzero;stroke:none"
             id="path34" /></g><g
           id="g36"
           transform="translate(275.75,191.1104)"><path
             d="m 0,0 c 0,-8.828 -4.025,-16.976 -11.044,-22.353 -1.315,-1.007 -1.564,-2.89 -0.558,-4.206 0.591,-0.771 1.483,-1.175 2.384,-1.175 0.637,0 1.279,0.201 1.822,0.618 C 1.117,-20.594 6,-10.711 6,0 6,1.657 4.657,3 3,3 1.343,3 0,1.657 0,0"
             style="fill:#333333;fill-opacity:1;fill-rule:nonzero;stroke:none"
             id="path38" /></g><g
           id="g40"
           transform="translate(212.187,292.9595)"><path
             d="m 0,0 c -10.806,0 -19.565,-8.759 -19.565,-19.565 0,-10.805 8.759,-19.565 19.565,-19.565 10.805,0 19.565,8.76 19.565,19.565 C 19.565,-8.759 10.805,0 0,0"
             style="fill:#333333;fill-opacity:1;fill-rule:nonzero;stroke:none"
             id="path42" /></g></g></g><text
       xml:space="preserve"
       transform="matrix(0.75000002,0,0,-0.75000002,0,500.00002)"
       id="text8371"
       style="font-style:normal;font-weight:normal;font-size:40px;line-height:1.25;font-family:sans-serif;white-space:pre;shape-inside:url(#rect8373);fill:#000000;fill-opacity:1;stroke:none" /><text
       xml:space="preserve"
       style="font-style:normal;font-weight:normal;font-size:30px;line-height:1.25;font-family:sans-serif;fill:#000000;fill-opacity:1;stroke:none;stroke-width:0.75"
       x="728.20764"
       y="-123.8301"
       id="text21953"
       transform="scale(1,-1)"><tspan
         sodipodi:role="line"
         id="tspan21951"
         style="stroke-width:0.75"
         x="728.20764"
         y="-123.8301" /></text><text
       xml:space="preserve"
       transform="matrix(0.75000002,0,0,-0.75000002,0,500.00002)"
       id="text29397"
       style="fill:black;fill-opacity:1;line-height:1.25;stroke:none;font-family:sans-serif;font-style:normal;font-weight:normal;font-size:40px;white-space:pre;shape-inside:url(#rect29399)" /></g></svg>
