<?xml version="1.0" encoding="UTF-8" standalone="no"?>
<!-- Created with Inkscape (http://www.inkscape.org/) -->

<svg
   version="1.1"
   id="svg2"
   xml:space="preserve"
   width="550"
   height="550"
   viewBox="0 0 550 550"
   sodipodi:docname="Pot Icon.svg"
   inkscape:version="1.1 (c4e8f9ed74, 2021-05-24)"
   xmlns:inkscape="http://www.inkscape.org/namespaces/inkscape"
   xmlns:sodipodi="http://sodipodi.sourceforge.net/DTD/sodipodi-0.dtd"
   xmlns="http://www.w3.org/2000/svg"
   xmlns:svg="http://www.w3.org/2000/svg"><defs
     id="defs6"><rect
       x="950.76118"
       y="214.0092"
       width="451.21121"
       height="124.52811"
       id="rect29399" /><rect
       x="120.34659"
       y="516.26733"
       width="412.04822"
       height="102.48445"
       id="rect8373" /><inkscape:path-effect
       effect="fillet_chamfer"
       id="path-effect859"
       is_visible="true"
       lpeversion="1"
       satellites_param="F,0,0,1,0,164.57701,0,1 @ F,0,0,1,0,157.49201,0,1 @ F,0,0,1,0,150.53482,0,1 @ F,0,0,1,0,148.25399,0,1"
       unit="px"
       method="auto"
       mode="F"
       radius="0"
       chamfer_steps="1"
       flexible="false"
       use_knot_distance="true"
       apply_no_radius="true"
       apply_with_radius="true"
       only_selected="false"
       hide_knots="false" /><clipPath
       clipPathUnits="userSpaceOnUse"
       id="clipPath18"><path
         d="M 0,500 H 500 V 0 H 0 Z"
         id="path16" /></clipPath></defs><sodipodi:namedview
     id="namedview4"
     pagecolor="#505050"
     bordercolor="#eeeeee"
     borderopacity="1"
     inkscape:pageshadow="0"
     inkscape:pageopacity="0"
     inkscape:pagecheckerboard="0"
     showgrid="false"
     height="550px"
     inkscape:zoom="0.89399997"
     inkscape:cx="199.66444"
     inkscape:cy="333.33334"
     inkscape:window-width="2560"
     inkscape:window-height="1011"
     inkscape:window-x="0"
     inkscape:window-y="0"
     inkscape:window-maximized="1"
     inkscape:current-layer="g8" /><g
     id="g8"
     inkscape:groupmode="layer"
     inkscape:label="mushroom-2389225"
     transform="matrix(1.3333333,0,0,-1.3333333,0,666.66667)"><path
       d="m 168.38495,91.993501 h 88.35922 A 157.49201,157.49201 45 0 1 414.23618,249.48551 V 350.44502 A 150.53482,150.53482 135 0 1 263.70136,500.97984 H 152.06193 A 148.25399,148.25399 45 0 1 3.8079419,352.72585 l 0,-96.15534 A 164.57701,164.57701 135 0 1 168.38495,91.993501 Z"
       style="fill:#ab6e24;fill-opacity:1;fill-rule:nonzero;stroke:none;stroke-width:0.81941"
       id="path10"
       inkscape:path-effect="#path-effect859"
       inkscape:original-d="M 3.8079419,91.993501 H 414.23618 V 500.97984 H 3.8079419 Z" /><text
       xml:space="preserve"
       transform="matrix(0.75000002,0,0,-0.75000002,0,500.00002)"
       id="text8371"
       style="font-style:normal;font-weight:normal;font-size:40px;line-height:1.25;font-family:sans-serif;white-space:pre;shape-inside:url(#rect8373);fill:#000000;fill-opacity:1;stroke:none" /><text
       xml:space="preserve"
       style="font-style:normal;font-weight:normal;font-size:30px;line-height:1.25;font-family:sans-serif;fill:#000000;fill-opacity:1;stroke:none;stroke-width:0.75"
       x="728.20764"
       y="-123.8301"
       id="text21953"
       transform="scale(1,-1)"><tspan
         sodipodi:role="line"
         id="tspan21951"
         style="stroke-width:0.75"
         x="728.20764"
         y="-123.8301" /></text><text
       xml:space="preserve"
       transform="matrix(0.75000002,0,0,-0.75000002,0,500.00002)"
       id="text29397"
       style="fill:black;fill-opacity:1;line-height:1.25;stroke:none;font-family:sans-serif;font-style:normal;font-weight:normal;font-size:40px;white-space:pre;shape-inside:url(#rect29399)" /><path
       d="m 185.42261,126.10408 c -26.38231,3.24117 -50.94703,14.49659 -72.0792,30.36058 -18.446457,10.5862 -31.539264,28.79145 -35.665428,49.65297 -5.199261,16.13493 -6.244852,35.0014 4.997676,48.96381 7.326394,5.25591 7.866031,11.40641 4.888547,19.26578 -5.984716,27.70149 -11.426815,55.53608 -18.153635,83.06455 -9.200013,5.5119 -17.508834,14.10542 -18.623933,25.17551 -2.424824,12.65298 -8.750878,25.66059 -5.64753,38.45614 12.369321,18.55738 36.493623,22.84919 56.661543,28.16735 60.58657,12.52729 123.42404,11.79493 184.53861,3.63798 29.79416,-5.23757 61.48427,-10.22933 86.52669,-28.36995 17.14058,-12.0882 3.60528,-32.36895 -0.19444,-47.59582 -1.02204,-18.34886 -23.91104,-21.85536 -24.67711,-39.64962 -7.39797,-27.0981 -14.73884,-54.21098 -22.10233,-81.31796 10.33388,-10.89129 16.47506,-26.22109 14.28184,-41.11966 -6.71397,-18.43759 -9.6357,-39.73983 -26.05398,-52.59453 -11.84579,-10.69164 -26.80232,-16.8093 -40.37873,-24.86642 -27.56839,-12.50554 -58.54717,-14.90743 -88.31914,-11.23338 z m 34.14067,0.45749 c -8.38529,0.67146 -8.25706,-0.82353 0,0 z m 11.06802,2.46846 c 8.63507,1.3999 25.46245,4.52991 28.6776,7.06595 -36.87373,-7.6766 -75.2855,-5.9405 -111.45376,4.42356 25.48165,-11.54512 55.05544,-14.95328 82.77616,-11.48966 z m -7.76738,4.19243 c -13.90325,0.38723 -7.28483,-0.85007 0,0 z m 17.21897,3.23378 c 31.93265,4.99176 68.02401,16.11126 85.02263,46.01338 3.23542,7.36867 6.73542,16.42626 -1.06923,5.68109 4.34963,12.13358 20.37348,31.47124 9.95425,48.2347 -3.13678,7.24325 -11.17377,21.73853 -12.02547,5.27113 -1.06098,-11.22361 -12.56764,-31.80842 -7.4543,-37.17835 -1.98604,-7.55474 -5.40144,-16.81967 3.25508,-5.15683 5.69189,4.9557 7.78336,11.07084 6.83656,18.48492 2.72136,1.80532 1.89524,-8.02517 4.38957,1.80161 -1.76214,8.74717 2.33504,18.57217 2.41964,3.57778 -0.16899,-25.15777 -24.72889,-41.18916 -45.64514,-49.6796 -48.88689,-18.02793 -104.72024,-16.82706 -153.18565,2.06974 -23.16718,9.4637 -48.842564,26.51986 -50.419083,54.11782 5.158307,4.23574 5.298053,-17.34468 11.949464,-22.00621 5.246889,-7.58444 7.807019,-8.39459 4.089919,1.21216 -1.871847,13.88507 2.61222,-1.00327 4.04794,-3.42397 -4.032854,17.54728 -7.258352,35.28091 -11.298448,52.8282 -14.100377,-12.27807 -18.542594,-35.35486 -7.33968,-51.30049 0.842111,-3.37133 10.705842,-12.48304 2.664998,-7.98967 1.646459,-18.66238 16.67473,-31.49342 31.62505,-40.73514 36.48771,-21.28746 80.68202,-27.21937 122.18176,-21.82134 z M 94.004874,191.24252 c -3.981229,7.52057 9.899826,-7.7387 0,0 z m 3.363475,-2.11425 c -3.80967,4.45833 -3.588137,2.12667 0,0 z m -8.815041,33.32875 c 0.315935,3.21292 0.683311,-2.76764 0,0 z m -0.681067,4.12867 c 0.554432,4.08801 0.554432,-4.08801 0,0 z m 1.420525,-0.43133 c 0.315935,3.21293 0.683311,-2.76763 0,0 z m 0.739447,2.95782 c 0.315935,3.21293 0.683322,-2.76763 0,0 z m -5.857234,4.86812 c 0.554454,4.08801 0.554454,-4.08801 0,0 z m -1.537319,0.30813 c 0.315916,3.21293 0.683296,-2.76763 0,0 z m 0.739456,2.95783 c 0.315935,3.21292 0.683316,-2.76764 0,0 z m 1.478912,0 c 0.315935,3.21292 0.683316,-2.76764 0,0 z m -0.681069,3.38921 c 0.554434,4.08801 0.554434,-4.08801 0,0 z m 1.420524,-0.43133 c 0.315936,3.21292 0.683317,-2.76763 0,0 z M 279.27375,143.02781 c 2.5248,2.57597 -5.96682,-2.75625 0,0 z m -148.63062,5.527 c -6.90444,4.90923 -4.89831,1.40979 0,0 z m 109.06974,17.02966 c 21.18244,3.2286 43.44154,7.85509 61.15299,20.47996 11.73871,34.20724 19.51868,69.76471 29.41407,104.58272 5.04502,18.73781 10.05394,37.48598 15.14849,56.21047 -55.51982,-21.92486 -116.92423,-21.81986 -175.63554,-17.36538 -32.71353,3.20082 -65.33388,10.38034 -95.349869,23.9983 10.978849,-52.50876 22.131913,-105.00568 33.061069,-157.51887 14.93848,-15.60844 37.30851,-21.53887 57.63319,-26.9014 24.40648,-5.39537 49.77425,-6.68854 74.5756,-3.49099 z m -137.90852,2.08615 c -5.568692,5.95114 -4.351549,3.15466 0,0 z m -8.134004,8.87347 c -5.568694,5.95114 -4.351552,3.15466 0,0 z m 232.189124,15.09969 c -2.8083,-0.8599 -3.25641,-4.13947 0,0 z m 2.21836,2.95782 c -2.80829,-0.8599 -3.2564,-4.13947 0,0 z m 2.95782,3.69728 c -2.80829,-0.8599 -3.2564,-4.13947 0,0 z m -243.399273,0.79698 c 0.509832,4.00577 -5.846134,-2.04711 0,0 z m 223.152973,2.14915 c -1.43971,-0.5324 1.0191,-3.46759 0,0 z m -210.7449,5.17619 c -1.439729,-0.53241 1.01909,-3.46759 0,0 z m -0.696494,4.08239 c -1.282764,0.23911 0.776354,-4.94089 0,0 z m 226.303074,5.91565 c -1.0508,-0.34169 0.60147,-8.14023 0,0 z m 5.1441,4.43673 c -1.28276,0.23906 0.77635,-4.94089 0,0 z m -0.69952,7.76429 c -1.06004,-3.16695 0.615,-6.35739 0,0 z M 88.500582,258.93351 c -2.808319,-0.86 -3.256429,-4.13962 0,0 z m 171.553758,72.62197 c 33.41453,3.57911 68.90989,7.97399 97.1645,27.54769 10.34542,5.9007 14.96807,28.50602 14.09535,33.65559 -7.17256,-6.5396 -27.99137,-13.74855 -25.49496,-11.2109 3.86278,4.34889 31.3544,10.66384 32.41627,26.39414 -0.57928,13.25061 -24.87087,25.2953 -28.03721,23.51173 -1.26082,2.71381 -11.8971,5.71556 -3.24533,1.02213 7.93555,-3.29236 15.55372,-4.76077 22.13636,-16.53866 5.29998,-17.8342 -16.46473,-26.69288 -29.97755,-31.23758 -54.29824,-16.73832 -112.11332,-16.3331 -168.27056,-12.66452 -35.61959,3.93257 -72.707752,8.59618 -104.313571,26.65148 -17.335801,5.62621 -12.122342,31.96519 0.438468,32.97973 2.246467,2.49565 5.775899,3.22935 9.758016,5.86565 -13.771624,-2.81141 -39.07876,-17.46151 -24.969943,-33.51065 4.6664,-4.66081 31.138484,-21.52705 11.269307,-11.42239 -5.75977,3.2826 -8.357488,2.55601 -6.161896,5.17753 -6.83892,0.20212 -7.854637,7.09744 -5.117764,-4.18265 2.000081,-12.80547 7.326824,-24.33106 17.631585,-31.57773 33.686648,-21.2135 74.482428,-26.49765 113.305338,-30.58389 25.73749,-1.70031 51.64951,-1.75842 77.37816,0.12147 z M 61.19987,371.82773 c 0.315915,3.21292 0.683316,-2.76764 0,0 z m 28.041648,10.04431 c -1.760664,4.68637 10.277091,-1.57209 0,0 z m -8.134018,2.95782 c -1.376611,3.15215 5.363558,0.8402 1.826751,-0.70043 z m -25.083821,1.78699 c 0.315915,3.21291 0.683317,-2.76764 0,0 z m 16.949806,1.17078 c -1.37661,3.15215 5.363559,0.84019 1.826752,-0.70044 z m -16.949806,5.48425 c 0.315915,3.21293 0.683317,-2.76763 0,0 z m 17.689262,43.32029 c 5.770122,2.65316 -2.280048,-2.47718 0,0 z M 360.62182,359.49946 c -2.80832,-0.86002 -3.25643,-4.13963 0,0 z m -149.37009,14.4491 c 10.62377,-6.84128 8.56467,23.71435 6.56695,4.85675 -5.55522,1.47705 -2.03482,5.34554 -4.31339,-1.28644 -6.24825,-5.08673 -5.86389,-3.03531 -2.93312,0.62509 -6.54759,-2.79175 -10.99438,-6.7323 0.67963,-4.19554 z m 1.96192,0.43053 c -2.61235,4.30777 5.23179,-1.05044 0,0 z m 6.17224,-0.66461 c -2.25978,1.63508 -3.34782,-2.58366 0,0 z m 5.17619,-0.0197 c 9.05538,-0.25149 10.97869,6.29247 1.46769,2.26083 -0.45682,4.92625 -8.64157,-5.22382 -1.46769,-2.26083 z m 10.35238,0.38617 c 9.7243,2.87087 -3.0782,4.89757 0,0 z m -39.76941,0.57803 c -7.37342,0.91208 3.56254,-2.15183 0,0 z m 2.47909,2.40427 c -2.22605,11.32831 -0.65813,-11.13739 0,0 z m 51.63474,-2.70982 c -1.02354,2.35029 -2.00274,-1.95852 0,0 z m 7.10099,0.4493 c -1.21309,4.48079 -2.57863,-3.7838 0,0 z m -68.67178,1.26598 c -2.36523,3.04818 3.2002,10.39261 -2.11146,5.34552 -7.72449,8.8053 2.39393,-4.86947 -1.63568,-5.88667 0.78387,-1.42527 3.20895,-1.31277 3.74714,0.54105 z m 13.212,-1.30144 c -3.66001,3.20375 -1.51322,-1.61438 0,0 z m 67.14998,1.12125 c -2.78094,3.82358 -6.43918,-4.59956 0,0 z m -95.53473,1.64455 c -0.77268,5.95321 -1.01161,-7.25318 0,0 z m 2.50439,-2.03779 c -2.39406,3.42516 -2.60436,0.57895 0,0 z m 27.1114,0.21542 c 4.26105,6.34289 -4.63654,11.38597 -1.2957,0.45323 l 1.42555,-0.89409 -0.12995,0.44086 z m 51.00619,0.61457 c 3.21871,3.9904 -7.69212,-4.1593 0,0 z m 20.96949,0.12325 c -7.01314,-0.97299 2.10908,-1.59486 0,0 z m 2.70138,1.36428 c -3.80597,5.48958 1.64188,-6.59151 0,0 z m -52.88144,1.42262 c -0.31827,4.71151 -5.09116,3.48579 -2.64756,0.10805 -2.42659,-4.89503 0.44338,0.5441 2.64756,-0.10805 z m 20.60124,-2.09162 c -2.53884,1.68921 -3.25065,-2.84099 0,0 z m 3.49393,0.29059 c -2.86435,4.27747 -4.19567,-3.6498 0,0 z m 15.8702,-0.97377 c -4.26696,0.46632 1.40263,-1.30268 0,0 z m -101.44448,2.15034 c -3.11443,-0.15045 -1.9359,-3.25552 0,0 z m 17.93181,-1.42624 c -4.60149,0.73354 -0.0574,-1.27942 0,0 z m 4.25186,1.31569 c -3.20228,0.30486 -4.26294,-3.83304 0,0 z m 73.51081,-1.10828 c -12.62475,4.29211 6.51976,-3.21944 0,0 z m 13.7444,0.46066 c -0.81509,8.17867 -0.89629,9.92334 -3.00027,0.80239 0.0739,-1.22518 2.92529,-3.21544 3.00027,-0.80239 z m -123.04546,1.50419 c -2.87559,3.40061 1.13548,-5.12472 0,0 z m 4.73251,-0.76976 c -1.98913,1.3167 -1.41285,-2.63201 0,0 z m 39.92175,-0.0382 c 2.76454,6.39303 -6.48753,-3.32726 0,0 z m 73.95448,-0.37521 c -2.74059,2.57701 -1.99404,-1.5014 0,0 z m 18.11666,0 c 1.01459,3.41762 -4.13254,-1.9526 0,0 z M 146.32691,379.48 c -5.91772,5.67502 -3.98833,-3.07998 0,0 z m 12.89434,-0.19699 c 3.70024,8.31342 -6.41522,-1.41317 0,0 z m 7.06121,-0.60404 c -4.26696,0.46631 1.40264,-1.30269 0,0 z m 5.03746,0.64768 c -1.98913,1.3167 -1.41285,-2.63201 0,0 z m 9.94007,-0.48233 c -2.36597,2.22103 -5.82751,-0.27425 0,0 z m 6.0353,1.34761 c -1.43974,-0.53245 1.01909,-3.46775 0,0 z m 25.43432,-1.27811 c -2.03055,2.76039 -0.67039,-2.55053 0,0 z m 40.69816,0.62035 c -2.04724,3.16812 -6.79263,-3.1699 0,0 z m -113.07314,1.05576 c -2.36005,1.86817 2.05421,-4.06582 0,0 z m 16.91579,-0.95987 c -9.02448,2.3843 5.49593,8.07679 -5.09662,6.40148 -1.41408,-5.29865 0.83061,-6.36096 5.09662,-6.40148 z m 6.31821,-0.03 c 7.46421,9.18684 -3.1813,1.24204 0,0 z m 27.53882,1.38784 c 3.0918,5.93767 -6.69002,-7.06196 0,0 z m 109.83728,-0.23129 c 4.77245,6.10673 -10.41213,-4.93881 0,0 z m -166.0522,1.31772 c 5.43293,9.87764 -11.03919,12.45214 -5.57046,9.60346 7.89028,-2.98044 0.65089,-11.40373 -0.90145,-2.41063 -1.73417,-2.96388 7.64848,-11.61669 6.47186,-7.19283 z m 46.02817,-0.89849 c -8.69215,5.78033 -4.7266,-3.12702 0,0 z m 3.32755,-0.7831 c -3.91632,2.70154 0.82898,-2.54845 0,0 z m 44.81398,2.43755 c -6.22194,5.14424 0.38778,-7.19491 0,0 z m 47.53814,-1.27118 c 4.98349,6.17061 -4.30305,4.95997 -1.56025,-1.49606 l 1.56025,1.49577 v 2.3e-4 z m -1.02882,1.34264 c 3.66002,3.20377 1.51322,-1.61438 0,0 z m 21.44422,-2.13923 c -0.89971,3.50649 -1.46974,-3.67911 0,0 z m 8.73061,0.75901 c -1.99312,-0.75231 -0.5324,-3.1557 0,0 z m -106.69312,0.3351 c -1.77366,7.24209 -1.19192,-5.57593 0,0 z m 12.07072,1.30766 c 5.34554,9.97157 -5.57593,5.75858 -1.60137,4.17689 4.50877,6.47793 -1.12896,-13.59401 1.60137,-4.17689 z m 21.07597,-1.63036 c -2.36922,2.91198 0.80896,-3.66622 0,0 z m 11.57619,-0.55891 c -4.9514,2.40471 -4.23057,-1.16464 0,0 z m 44.96186,1.87572 c 12.02639,7.36024 -5.54575,1.70726 -1.00711,-1.48055 z m 19.12382,-1.38048 c -2.10493,5.57431 -1.24667,-4.21963 0,0 z m 2.17222,0.94074 c -1.43969,-0.53245 1.01911,-3.46775 0,0 z m -182.3498,-0.53919 c -2.03054,2.76039 -0.67039,-2.55053 0,0 z m 3.35801,0.69026 c -3.67834,2.988 1.07052,-3.50414 0,0 z m 8.15798,0.56664 c -8.68847,3.86794 1.94418,-3.94987 0,0 z m 9.42421,0.1897 c -5.05314,2.55719 2.90562,-4.91338 0,0 z m 59.66077,-0.99779 c -2.53885,1.6892 -3.25064,-2.841 0,0 z m 39.05511,-0.18201 c -7.31959,7.83334 -2.40929,-0.96696 0,0 z m 5.75859,1.01185 c -1.43969,-0.53245 1.0191,-3.46775 0,0 z m 39.42482,-0.35433 c -1.99874,3.27521 -1.64233,-4.21653 0,0 z m 1.2446,0.35433 c -1.4397,-0.53245 1.0191,-3.46775 0,0 z m 19.99044,-0.90892 c 6.87458,-1.87571 -6.33921,10.96597 0.0203,-1.10919 l -0.0203,1.10919 h -2e-5 z m -168.50719,0.35969 c 2.25032,3.15468 -10.44334,4.22555 -2.58809,-0.45598 z m 106.35001,0.74955 c -3.9833,5.31373 -1.44007,-5.05596 0,0 z m 5.97526,0.50384 c -7.21324,-0.01 -0.23419,-3.09935 0,0 z m 2.4757,-0.41331 c -1.58408,3.78779 -2.71573,-5.01351 0,0 z m 26.99013,-0.82998 c -3.69638,4.77347 -6.27117,-2.49493 0,0 z m 68.97792,2.69294 c 25.50236,12.16109 -26.49322,-10.64817 0,0 z m -159.20485,-0.57465 c -1.12954,5.77604 -1.7951,-6.40145 0,0 z m 20.35426,-1.194 c -5.09588,3.59774 -4.25276,-1.46777 0,0 z m 21.44422,0.5546 c -5.34627,5.3081 2.31568,-5.09751 0,0 z m 27.35988,0.49297 c -6.4099,8.23296 0.2144,-5.34242 0,0 z m -145.67282,0.69532 c -3.75584,6.98536 -5.09188,-4.00577 0,0 z m 41.0472,-0.6337 c -3.54436,13.17799 -1.9668,-3.18278 0,0 z m 9.97555,0.24076 c -4.68312,4.05785 -5.63022,-1.59205 0,0 z m 22.23248,-0.76934 c 5.84998,7.13575 -11.25748,-2.63868 0,0 z m 48.7553,-0.026 c -1.88932,2.65274 -1.88932,-2.65271 0,0 z m 60.84982,-0.27793 c -2.96242,6.51164 -5.76806,-0.20944 0,0 z m 7.7588,1.69114 c -4.71225,5.35987 -5.48542,-2.91197 -0.15952,-1.52032 z m -147.30847,0.0657 c -1.37105,5.12326 -1.37105,-5.12324 0,0 z m 12.66376,0.96895 c 5.83181,-4.53878 5.12768,2.35443 -0.35824,1.0286 -1.76701,-2.02834 1.66274,-4.98838 0.35824,-1.0286 z m 51.22507,0.16505 c 2.34555,-0.16031 10.12005,1.56705 -1.328,2.00304 -5.45498,4.21578 4.20187,-9.32529 1.328,-2.00304 z m 27.48707,-1.95467 c 4.10205,9.06395 -6.09653,1.86507 0.53491,-0.50695 z m 25.77447,-0.37915 c -2.39407,3.42516 -2.60437,0.57896 0,0 z m 7.62363,0.78252 c 2.93268,4.2149 -8.15013,-2.9247 0,0 z m 34.52519,-0.0217 c -5.31476,3.34662 -1.60535,-3.07984 0,0 z m -211.48436,0.4826 c 11.34799,6.89482 -8.36813,-1.00777 0,0 z m 39.56089,1.06554 c -2.96685,6.25683 -1.33763,-6.81659 0,0 z m 35.12415,-0.69582 c -1.98914,1.31671 -1.41286,-2.63202 0,0 z m 14.92813,-0.6477 c -4.26696,0.46631 1.40262,-1.30268 0,0 z m 44.71341,0.33245 c -11.41233,5.87423 -3.35579,-1.51071 0,0 z m 4.69111,1.19216 c -2.8083,-0.86001 -3.2564,-4.13964 0,0 z m 79.73256,-0.80631 c 4.7686,1.19623 11.16016,6.16559 5.49965,5.64412 -2.04682,-2.88891 -3.00042,-1.52108 -6.89321,-6.86763 l 1.39363,1.22343 v -2e-5 z m -191.16412,0.74651 c 4.96886,3.87416 -10.54611,15.70604 -1.9557,7.54334 -2.22547,-2.55658 2.34998,-7.7282 1.9557,-7.54334 z m 34.85204,1.07166 c -2.90563,2.38032 -0.83034,-5.16095 0,0 z m 83.80845,-0.82322 c -5.02697,5.16628 2.58528,-5.32897 0,0 z m 39.26805,0.798 c -4.85924,6.05851 2.05378,-6.32191 0,0 z m 23.40674,-0.94082 c -3.1557,-0.53243 -0.7523,-1.99314 0,0 z m -178.59337,0.88228 c -3.57617,5.34907 1.90113,-5.25622 0,0 z m 42.59857,-0.39614 c 5.03258,8.98824 1.85263,8.19081 -1.1274,0.36177 -4.91621,2.09236 4.01998,4.92138 -7.8894,7.24859 -3.98508,0.0858 6.04904,-3.32725 2.65211,-4.99591 2.25328,-0.70536 3.96201,-5.65047 6.36465,-2.61443 z m 23.213,-0.34332 c 0.3525,11.72051 -5.01352,-1.9983 0,0 z m 30.31769,0 c -1.54369,5.34907 -3.72183,-1.10951 0,0 z m 7.76428,0.73946 c -3.33405,4.93365 -1.11419,10.86171 -5.53497,5.36106 -7.80215,6.87457 0.7931,-5.25607 2.55275,-1.55421 -1.17047,-1.1066 6.05422,-8.3551 2.98222,-3.80685 z m 20.82456,1.44364 c -4.90391,6.57937 3.47767,-8.92244 0,0 z m 20.85709,-1.01354 c 2.9281,1.54517 4.3446,7.99382 -2.30562,-0.37716 -3.33746,-3.8107 1.04817,1.18179 2.30562,0.37716 z m 17.2441,-1.40388 c -4.26695,0.4663 1.40265,-1.30268 0,0 z m -137.6778,0.97378 c -2.03054,2.76037 -0.67037,-2.55053 0,0 z m 26.62042,0.18476 c -1.25266,2.30119 -1.90618,-3.17035 0,0 z m 29.2085,0.34725 c 0.36407,0.11752 -5.15712,0.55642 -5.46576,1.98174 -7.09006,-4.72039 1.83961,-2.65938 5.46576,-1.98174 z m 48.65915,0.24961 c -0.28785,3.93242 -2.29408,-4.67735 0,0 z m 7.10514,0.92086 c -3.74726,8.79715 0.25527,-7.13532 0,0 z m -152.12086,-1.19744 c -4.26696,0.46629 1.40263,-1.30269 0,0 z m 17.60792,0.30193 c 1.92777,4.1473 3.82358,10.11767 -0.71068,8.04853 0.99398,-3.29915 0.25415,-6.87989 0.71068,-8.04853 z m 9.45262,-0.40033 c 4.4919,7.48447 -13.68541,5.45436 -0.60784,3.2289 -2.84365,-0.60505 0.15538,-4.39415 0.60784,-3.2289 z m 3.55885,0.15913 c 3.2511,5.58111 -4.15871,8.16507 -0.24306,1.09711 -1.28413,-0.729 -3.66356,-2.71853 0.24306,-1.09711 z m 6.24382,0.50778 c -0.47928,4.05281 4.70827,5.48308 -2.05259,3.99558 2.49094,-3.32164 -6.13186,-0.84116 2.53189,-4.79922 l -0.47928,0.80356 v 2e-5 z m 139.50574,0.40522 c 7.23394,-1.34733 2.30088,6.0381 -2.57183,0.887 -4.53938,8.4332 -1.45845,-6.73024 2.57183,-0.887 z m 17.22931,-0.29062 c -2.53884,1.68922 -3.25065,-2.84098 0,0 z m -222.250837,0.63683 c -6.308735,3.72493 3.127307,-3.79887 0,0 z m 107.728367,0.16544 c -0.76291,-0.93203 -7.43893,7.75349 -2.48043,-1.25599 l 1.23029,0.22772 1.25006,1.02824 v 3e-5 z m 75.03702,0.76698 c -1.43969,-0.53245 1.0191,-3.46776 0,0 z m 29.87105,-0.0353 c -2.47038,2.79218 -1.48986,-5.17811 0,0 z m 20.27884,-1.15303 c 1.76493,10.59567 -4.73548,-5.04043 0,0 z m -228.06297,1.93945 c -2.808308,-0.86 -3.256425,-4.13962 0,0 z m 94.1416,-0.32489 c -8.07205,0.60633 7.04081,4.70058 -5.18078,2.3256 -4.66167,0.54964 5.75223,-6.17727 5.18078,-2.3256 z m 20.46074,0.72424 c 2.97675,12.1627 -8.89181,-8.49769 0,0 z m -1.46528,1.2682 c 0.67036,2.55054 2.03055,-2.76039 0,0 z m 17.4482,-2.84351 c 1.42407,3.36054 3.71309,15.80662 -0.78657,3.16977 -1.56602,-0.20015 -1.60313,-6.28287 0.78657,-3.16977 z m 1.5283,1.54947 c -1.28276,0.23909 0.77633,-4.9409 0,0 z m 58.06651,-1.89803 c -4.26695,0.46629 1.40264,-1.30269 0,0 z m 34.1318,0.41918 c -7.10794,6.38785 -3.68735,-2.48857 0,0 z M 94.459724,390.3938 c -4.932605,2.19855 -1.56203,5.30827 -4.067008,5.99965 3.139729,3.58518 6.917026,-2.10302 6.16219,4.75618 -0.912722,2.99124 -6.665903,-4.10471 -9.707141,-4.82392 3.611953,-0.0434 2.78036,-7.57232 7.612121,-5.93191 z m 0.200264,9.67165 c 3.647748,1.26275 0.528349,-1.5215 0,0 z m 4.236496,-8.95053 c -3.109266,4.76683 -2.378527,-4.34859 0,0 z m 15.528566,0.0436 c -3.58636,1.59397 -1.35257,-2.45972 0,0 z m 7.44234,0.41532 c 1.18301,6.8756 -7.1782,-5.28031 0,0 z m 100.91353,0.93916 c 3.41629,10.87103 -3.81884,-7.21028 0,0 z m 25.6251,-2.00215 c -4.26695,0.4663 1.40264,-1.30268 0,0 z m 13.17148,0.23434 c -7.11119,2.77681 2.20358,-2.42113 0,0 z m 56.79021,0.1479 c 5.00125,-1.6759 -4.49736,3.83748 0,0 z m 25.83658,0.0371 c 8.87453,4.15131 -8.02042,15.0494 0.65754,10.3018 3.87563,-16.79895 19.94756,0.85849 22.63917,9.51414 -3.42427,16.79008 -23.83858,22.02099 -37.7714,27.5536 -56.74288,16.7753 -116.97156,18.9981 -175.65033,14.30772 -27.81981,-2.66648 -55.911734,-7.17493 -81.594516,-18.68752 -9.09501,-2.8926 -19.613326,-13.37661 -11.227896,-24.98474 5.703412,-6.86511 14.235411,-11.69642 18.0442,-3.43344 -7.148033,-21.46936 14.634558,1.24613 23.106512,3.52973 20.78315,6.81807 42.95943,7.96318 64.20252,13.05094 24.07815,1.38333 48.30865,1.49859 72.43561,1.65402 18.59731,-3.84029 38.25056,-3.4994 55.54644,-12.2482 14.89855,-5.79896 31.53926,-8.21328 44.7637,-17.58722 1.05545,-1.4445 2.57685,-5.72324 4.85319,-2.97053 z m 10.01063,11.88408 c -3.04258,7.2069 8.31798,-7.00988 0,0 z m 2.75268,-1.4614 c -3.80967,4.45832 -3.58813,2.12667 0,0 z M 83.635156,409.3754 c 2.253704,4.85808 0.781575,-2.79279 0,0 z m -20.595323,18.66977 c 9.331045,6.23052 -4.46306,-4.59409 0,0 z m 62.089147,-35.19218 c -2.91937,-0.30333 -1.19596,-3.29249 0,0 z m 50.20758,0.8277 c -2.99274,-1.61319 -0.80546,-4.01834 0,0 z m 70.11519,-1.29612 c -2.87087,2.0199 1.79717,-4.58788 0,0 z m 6.00395,-1.08454 c 3.00084,7.51509 -9.70995,10.93982 -1.41,3.75806 -3.43981,-0.81685 -0.0962,-2.20506 1.41,-3.75806 z m 19.73016,1.10919 c -0.87098,3.82165 -1.01318,-5.13375 0,0 z m -173.786929,2.35975 c -3.270897,-1.82911 -1.536584,-4.65163 0,0 z m 6.385949,-1.26593 c -1.43971,-0.53245 1.01912,-3.46775 0,0 z m 121.85936,-1.45217 c -3.51552,6.46639 -1.21362,-3.47899 0,0 z m 3.40149,0.17353 c -1.8893,2.65273 -1.8893,-2.65272 0,0 z m 38.03319,0.0792 c 4.87746,-0.47327 -0.13488,5.13553 2.02418,6.89899 -1.34098,2.58941 -2.50321,4.18562 -3.38346,-0.43739 1.19483,-1.02879 -6.3673,-3.21486 1.58274,-3.61476 -1.85811,-1.39512 -5.79941,-2.15756 -0.22336,-2.8469 z m 59.32802,0.25798 c -0.92464,2.73067 -1.59531,-3.50266 0,0 z m -260.776508,0.008 c -3.336858,3.13575 -3.050245,0.32786 0,0 z m 45.476528,0.39573 c 3.41393,2.37898 -7.15823,-2.40708 0,0 z m 61.00511,-0.45598 c -3.32104,2.35577 -5.55982,-1.63137 0,0 z m 34.01497,1.19544 c -0.99219,5.65492 -5.43277,-4.45137 0,0 z m 48.97713,-0.0574 c 12.50109,1.68169 -4.0926,2.47452 -0.66505,-1.16271 l 0.54747,0.44041 0.11752,0.7223 z m 19.02916,2.09089 c -5.74159,4.45228 -1.09314,-8.64543 0,0 z m 37.11032,-2.84365 c -1.51603,9.5934 -6.67521,1.75961 -2.09044,4.82377 2.02285,-2.38548 -2.3423,-6.68661 2.09044,-4.82377 z m 5.80118,0.0177 c -1.3529,11.01819 -5.95557,1.12673 -2e-5,0 z m 17.49997,0.39001 c -0.92464,2.73066 -1.59531,-3.50266 0,0 z m 36.48031,0.95303 c -2.80832,-0.85997 -3.25642,-4.13961 0,0 z m -270.03449,0.15223 c -1.112285,5.06218 -4.682369,-3.82697 0,0 z m 30.45227,-0.33402 c -9.48854,6.75317 -11.37047,-0.79214 0,0 z m 41.41692,-0.008 c -5.40927,2.68823 2.23716,-3.55323 0,0 z m 9.74484,-0.59591 c -4.26696,0.46629 1.40265,-1.30268 0,0 z m 47.12552,0.70807 c -4.13977,1.49947 0.87001,5.92718 -4.09895,-0.081 -0.82646,-2.65361 3.92651,0.78262 4.09895,0.081 z m 17.06962,-0.47374 c -4.02087,2.35161 -3.27654,-0.99901 0,0 z m 43.25816,0 c -4.00268,2.79218 -0.80707,-3.02349 0,0 z m -147.89118,0.73945 c -3.91645,2.70152 0.82898,-2.54845 0,0 z m 144.57694,1.12524 c 0.19186,4.18029 -8.83369,-5.73493 0,0 z m 16.52388,0.51529 c -2.82265,1.37939 0.1329,-5.0141 0,0 z M 61.938774,394.7873 c -3.336858,3.13572 -3.050245,0.32784 0,0 z m 52.334246,0.86301 c -1.12329,3.41067 -9.47878,-0.29519 0,0 z m 6.22148,0.5434 c 0.11772,9.69248 3.8573,-4.21031 0.93419,4.60578 -2.40783,0.70075 -2.64578,-5.16807 -4.86504,-3.64687 1.98973,0.64036 3.50443,-4.94547 3.93095,-0.959 z m 20.07475,0.6531 c -3.123,2.52391 -0.87142,-5.49047 0,0 z m 13.50853,-0.38515 c -1.4397,-0.53243 1.01912,-3.46775 0,0 z m 27.6527,-0.9089 c 9.01072,6.79189 -5.41179,-2.74338 0,0 z m 10.9003,1.44 c -4.94414,9.5872 0.74296,-7.9703 0,0 z m 18.38584,-0.5311 c -1.43969,-0.53245 1.0191,-3.46775 0,0 z m 3.22816,-0.22807 c 7.31411,1.88931 -0.86953,9.60686 -1.75708,-1.16254 l 0.84154,-0.51181 0.91561,1.6743 z m 6.30772,-1.05056 c -2.27013,2.46328 0.0324,-2.4865 0,0 z m 58.78674,0 c -2.14781,3.10069 -2.80387,-2.85519 0,0 z m -177.14404,0.82212 c 2.51547,5.75608 -2.336678,-1.88709 0,0 z m 54.51269,-0.16741 c 4.94045,3.44261 14.83643,6.08868 6.52568,5.26092 -7.882,-5.89153 -12.83501,1.07503 -6.52568,-5.26092 h -5e-5 z m 142.23284,0.0848 c -3.91629,2.70153 0.829,-2.54846 0,0 z m -190.76482,1.53392 c 1.02744,4.36473 -7.42665,-4.36321 0,0 z m 108.45155,-1.02951 c -4.26695,0.46633 1.40262,-1.30269 0,0 z m 38.48721,1.82734 c -1.35185,5.11039 -4.6287,-6.47083 0,0 z m 27.04633,-0.59463 c -0.4275,3.82093 -4.40036,-4.11462 0,0 z m 45.10088,-0.25898 c -2.23226,3.12715 -9.2099,-3.96821 0,0 z m -176.55246,1.41558 c -9.13776,2.73819 2.86939,-4.21151 0,0 z m 21.40725,-1.23071 c -3.51301,5.37361 -9.08511,-2.98934 0,0 z m 4.93187,0.13073 c 0.84534,4.6352 3.58843,-3.46702 1.07235,3.38168 -3.14979,0.77801 -1.11468,-7.13871 -1.07235,-3.38168 z m 25.05276,0.88269 c -1.49149,4.87524 -3.04672,-2.05568 -5.38694,2.15803 -0.54259,-5.60951 2.71882,-2.34303 5.38694,-2.15803 z m 55.7949,-0.78498 c -1.98913,1.3167 -1.41284,-2.63202 0,0 z m 18.11666,-0.41337 c -2.27013,2.46328 0.0324,-2.48651 0,0 z m 36.9728,0 c -2.27013,2.46328 0.0324,-2.48651 0,0 z m -139.01769,0.73946 c -2.27013,2.46327 0.0324,-2.48651 0,0 z m 57.63023,-0.0775 c -1.40314,4.13858 -2.26422,-2.291 0,0 z m 67.18251,0.81795 c 0.12028,4.89061 -2.62402,-5.85472 0,0 z m 8.56024,1.92259 c -4.98348,4.46763 -2.85976,-8.17721 0,0 z m 37.82612,-1.20656 c -8.63609,10.3299 4.89224,-8.11834 0,0 z m -210.75969,-0.55865 c -2.59566,2.02537 -3.17345,-2.25933 0,0 z m 61.082,1.12018 c -1.43972,-0.53243 1.01911,-3.46775 0,0 z m 10.16072,-0.87701 c -2.36922,2.91198 0.80896,-3.66622 0,0 z m 37.45639,-0.44525 c -1.51796,3.87652 -2.04608,-2.56828 0,0 z m 18.94042,1.34758 c -1.65697,9.53188 -5.0351,-6.61799 0,0 z m 24.77768,-1.37531 c 2.24338,3.18218 5.67652,5.2994 -0.60425,6.02923 -1.44652,4.4042 -1.44538,-10.59683 0.60425,-6.02923 z m 6.38019,0.13054 c -2.2367,5.28327 -2.49137,-0.59247 0.669,-0.53894 z m 9.44802,-0.0915 c -3.395,1.60537 -3.04729,-2.68747 0,0 z m -172.24883,2.23701 c -1.5434,9.60716 -3.10779,-4.49041 -3e-5,0 z m 14.71931,-1.46509 c -3.91646,2.70152 0.82898,-2.54846 0,0 z m 29.94795,2.45128 c -4.22127,1.15014 -4.5441,-6.02285 0,-10e-6 z m 34.01497,-1.63271 c -3.70217,3.4145 -3.94737,-4.37403 0,0 z m 113.13674,-0.81857 c -2.03054,2.76039 -0.67036,-2.55053 0,0 z m -195.82268,0.50514 c -4.26696,0.46631 1.40261,-1.30269 0,0 z m 33.87594,0.21113 c -2.01917,3.09003 -4.04216,-1.8031 0,0 z m 23.80161,-0.21113 c -4.26696,0.46631 1.40262,-1.30269 0,0 z m 73.94558,0 c -4.26696,0.46631 1.40263,-1.30269 0,0 z m 20.01115,-0.0158 c -4.60148,0.73355 -0.0574,-1.27944 0,0 z m 19.79671,0.98916 c 2.01444,5.17441 -9.27203,-3.53046 0,0 z m 12.2374,-0.01 c -1.49695,3.8996 -0.69039,-5.00078 0,0 z m 6.97204,-0.72886 c -1.88932,2.65271 -1.88932,-2.65273 0,0 z m -203.80883,1.12583 c -2.56857,3.5788 -5.06215,-3.84694 0,0 z m 26.34682,-0.83568 c -3.66001,3.20377 -1.51322,-1.61438 0,0 z m 12.11346,0.85697 c 0.0611,3.11252 -2.19411,-3.68708 0,0 z m 3.12245,0.87051 c -1.43972,-0.53245 1.0191,-3.46775 0,0 z m 34.67751,-1.27864 c -4.00268,2.79218 -0.80707,-3.02349 0,0 z m 30.10028,1.43986 c -0.0556,6.18199 -1.74097,-7.20896 0,0 z m 7.52471,-1.03173 c 0.0613,3.11252 -2.19411,-3.68708 0,0 z m -124.88078,0.33131 c -9.727542,1.89539 4.43333,-2.7271 0,0 z m 5.81331,1.10912 c -4.42401,3.61817 -2.44021,-5.26434 0,0 z m 78.40894,-1.23235 c -0.88839,2.19752 -2.81348,-2.15877 0,0 z m 9.87394,1.07432 c 4.306,7.92444 -9.8815,-2.91303 -1.02883,-0.0909 z m 34.93928,-0.13252 c -2.6573,1.43885 1.62934,5.86596 -2.33031,-0.1816 1.89479,0.9241 2.00808,-3.61091 2.33031,0.1816 z m 2.95783,-0.81858 c -2.14781,3.10069 -2.80386,-2.85518 0,0 z m 19.22587,3.81234 c -3.53578,1.1092 -3.90507,-9.0113 0,0 z m 1.84864,-3.81234 c -3.91631,2.70153 0.82898,-2.54846 0,0 z m 26.96944,-0.029 c 2.86612,4.00962 -5.56767,-2.87515 0,0 z m -165.62334,0.31961 c -3.66001,3.20377 -1.51322,-1.61438 0,0 z m 22.55341,1.39268 c 2.45528,2.59105 -8.21787,-4.26193 0,0 z m 8.87346,-0.94384 c -2.27013,2.46341 0.0324,-2.4865 0,0 z m 12.20103,0 c -2.74056,2.577 -1.99401,-1.50138 0,0 z m 16.01957,0.32196 c 1.06369,5.25591 -2.90236,-1.63671 0,0 z m 3.52352,-0.39208 c -4.00476,1.78846 -2.62419,-1.80309 0,0 z m 10.92307,1.69691 c -3.41539,1.41307 1.4439,-5.62769 0,0 z m 14.18869,-1.20608 c 8.21594,2.21156 -5.46725,5.50036 -0.6567,0.31873 -1.64277,-0.23352 -0.1077,-3.55708 0.6567,-0.31873 z m 2.80949,-0.65504 c -4.26696,0.46631 1.40262,-1.30269 0,0 z m 37.45196,0.68627 c 7.26442,6.51697 -5.44818,-3.45503 0,0 z m 34.13624,-0.53107 c -2.84823,3.88319 -1.56144,-1.73092 0,0 z m -227.752392,0.35831 c -2.394062,3.42516 -2.604363,0.57895 0,0 z m 72.138352,0.62931 c -6.06413,0.95374 1.94697,-2.23849 0,0 z m 9.47332,0.0158 c 7.3521,1.63758 -3.51997,-0.54008 0,0 z m 23.32687,0.82551 c 9.42895,-0.68629 4.83263,3.55604 -2.12269,1.05089 -8.13977,-2.0242 -3.33287,-2.66486 2.12269,-1.05089 z m 66.28778,0.19227 c 3.635,7.36511 -3.75689,-3.70468 0,0 z m 16.59487,-1.20273 c -2.03056,2.76039 -0.67039,-2.55053 0,0 z m -138.83284,0.48973 c -4.601487,0.73355 -0.0574,-1.27943 0,0 z m 9.47272,2.64769 c -1.7497,0.54741 -0.17076,-6.29543 0,0 z m 15.63802,-1.85515 c -1.21056,9.02005 -5.66453,-1.578 0,0 z m -3.11179,2.34571 c 3.1282,1.59825 4.4437,-2.4896 0,0 z m 21.11738,-2.57938 c 3.52914,3.73337 -12.57311,0.25422 -1.79583,-0.98823 z m 22.61256,-0.5311 c -0.0519,4.09156 -3.05573,-1.5039 0,0 z m 3.2264,0.22183 c -4.00267,2.79219 -0.80708,-3.02348 0,0 z m 1.74275,0.80493 c 2.91759,2.47497 -6.00291,8.31844 -6.84973,6.58959 1.09518,-0.39118 7.51435,-10.5791 6.84973,-6.58959 z m 133.65517,0.47373 c -1.43971,-0.53245 1.01912,-3.46776 0,0 z M 178.7657,405.16479 c -1.77868,4.12484 -0.81057,-3.91837 0,0 z m 2.95782,-0.81857 c -3.66001,3.20377 -1.51322,-1.61438 0,0 z m 80.35372,1.61661 c -4.19863,3.80981 -9.03483,-5.73196 0,0 z M 105.564,405.45536 c -3.63427,4.32272 -1.0562,-2.90517 0,0 z m 71.04248,0.71992 c 2.85978,9.07326 -7.51494,-3.26856 0,0 z m 11.57308,0.0986 c -2.13791,5.12251 -2.04564,-4.76063 0,0 z m 22.38629,-1.1883 c -3.66002,3.20378 -1.51322,-1.61438 0,0 z m 32.72093,0.7475 c 6.34734,5.46206 -9.29245,-1.1489 -5.34066,-0.68572 1.76301,0.34153 3.54659,0.58683 5.34066,0.68572 z m 7.89014,0.62566 c 1.73003,4.34208 -5.50613,-5.13462 0,0 z m 27.22084,-0.18476 c 6.51993,0.76034 0.3154,-0.69109 -1.17518,6.45856 0.36909,-2.79027 -6.67462,-9.51887 1.17518,-6.45856 z m -1.28076,1.35567 c 2.46949,2.38282 1.71613,-2.14042 0,0 z m 21.92339,-0.84837 c -7.75084,0.34455 2.0718,-3.06949 0,0 z m -182.7935,-0.5584 c 0.0935,4.11434 -3.2709,-3.10128 0,0 z m 4.51675,1.99387 c -3.74771,7.40712 -0.46626,-9.10552 0,0 z m 11.41307,-2.15478 c -3.27329,3.58844 -2.24943,8.47845 -5.11395,0.96836 1.02897,1.35783 7.17598,-2.89601 5.11395,-0.96836 z m 62.4781,0.2036 c -0.55145,1.7296 -3.12938,-2.71144 0,0 z m 7.76944,0.37819 c -2.48782,2.48457 -2.69812,-2.47466 0,0 z m 10.35238,-0.32609 c -1.22436,1.65211 -1.84893,-2.53203 0,0 z m 55.63668,0.21645 c 0.23824,0.51486 -1.74794,6.04239 -1.45268,-0.80966 0.39569,0.34871 0.70652,1.37875 1.45268,0.80966 z m -129.58225,0.89274 c -1.68242,2.74502 -1.32927,-3.49082 0,0 z m 17.88596,-0.64769 c -4.26696,0.46629 1.40265,-1.30266 0,0 z m 1.78697,1.51293 c -1.4397,-0.53245 1.01911,-3.46775 0,0 z m 25.72567,0.4585 c -0.42307,7.82049 -2.82532,6.88775 -4.38927,6.08293 0.0896,1.97832 -6.95473,-3.66313 1.39641,-2.54952 2.98533,-4.70086 -7.0442,-6.35886 2.1996,-4.617 l 0.79328,1.08368 h -2e-5 z m 8.58226,-1.73713 c -4.33956,5.414 6.64683,-1.25605 8.16418,4.79686 5.48441,1.0129 -0.32411,3.18423 -4.69538,1.79747 -4.51039,7.9382 -15.30377,-0.484 -4.04098,-0.19863 3.35994,2.81657 4.00799,-0.15085 -2.71765,-5.47138 -1.56839,-2.36005 3.04877,-1.75901 3.28999,-0.92428 z m 64.33268,1.84006 c -3.86899,0.98249 -2.34749,-5.25694 0,0 z m 1.12875,-1.24335 c -3.15571,-0.53241 -0.75232,-1.99312 0,0 z m 33.25627,-0.59665 c -2.27013,2.46343 0.0324,-2.48649 0,0 z m -148.7785,2.77296 c -6.25921,3.11237 2.77487,-5.78445 0,2.9e-4 z m 22.2236,-0.70716 c -7.88969,8.20043 -0.20213,-5.60462 0,0 z m 42.63407,-1.32635 c 3.20332,7.84431 -4.56244,-1.51277 0,0 z m 7.02483,0 c -3.85079,7.06387 3.52054,3.10617 5.74853,-0.47145 -1.72559,8.23917 -8.89565,6.56149 -4.29255,9.5588 -9.99493,1.2267 -3.3734,-6.98474 -4.68933,-7.55636 0.39218,1.88355 4.0667,-4.3267 3.23319,-1.53097 z m 13.36536,0.82872 c 9.73908,-3.41776 -3.60914,4.95541 -2.99066,-1.17038 l 1.05616,0.1193 1.93457,1.05101 z m 57.99257,-0.82872 c -2.50424,2.06679 -4.70072,-0.57935 0,0 z m 2.50247,2.21837 c -0.0308,2.80254 -3.58518,-7.20171 0,0 z M 134.21396,409.2319 c -5.67031,-3.49511 -0.34071,0.0836 0,0 z m 1.93618,-0.36973 c -2.10478,3.58237 -0.14947,-3.70067 0,0 z m 14.52174,-0.2906 c 7.19563,1.83652 -7.8316,2.76704 0,0 z m 114.23853,-0.067 c -2.91685,1.65697 -1.5156,-2.74959 0,0 z m -148.73417,1.12896 c -2.36922,2.91198 0.80896,-3.66622 0,0 z m 40.52072,-0.48261 c 0.22983,7.06268 -3.83291,0.076 0.52596,-0.50604 z m 3.63072,1.96681 c -2.51873,3.85463 -0.58244,-7.11534 0,0 z m 39.59934,-0.60716 c -1.43972,-0.53247 1.01909,-3.46775 0,0 z m 35.41106,-1.28714 c -0.55145,1.72961 -3.12937,-2.71143 0,0 z m -107.44736,0.5136 c -4.26696,0.4663 1.40263,-1.30266 0,0 z m 13.67357,1.8661 c 6.1891,-0.29243 -7.7637,5.72502 -2.27635,-1.83533 0.80162,0.45432 1.03215,4.12853 2.27635,1.83533 z m 61.2432,-1.63183 c 0.0619,2.83316 -3.38168,-2.98399 0,0 z m 30.68742,0.78311 c -6.03499,3.05202 -3.36926,-2.9639 0,0 z m 40.61833,1.62634 c -4.74051,0.0851 -0.37975,-5.8059 0,0 z m 7.44645,-0.88695 c -1.47449,5.19055 -1.23589,-6.04059 0,0 z m -157.50409,0 c -5.98916,2.65511 0.0724,-3.22535 0,0 z m 34.75443,0.52845 c -1.55345,2.20388 -2.32722,-5.03037 0,0 z m 78.65,-0.94181 c -3.87919,3.87491 0.47538,-3.78897 0,0 z m 16.00034,0.0436 c -3.58635,1.59397 -1.35261,-2.45972 0,0 z m 10.35238,-0.41338 c -1.40431,7.05723 -3.2536,-3.17743 0,0 z m -144.05488,0.50513 c -4.26696,0.4663 1.40265,-1.30267 0,0 z m 66.86162,1.36491 c -2.43593,4.69555 -0.91584,-5.88103 0,0 z m 53.53068,-0.7172 c -1.98914,1.3167 -1.41285,-2.63204 0,0 z m 4.80794,-0.68021 c 12.96282,12.57667 -9.32956,-4.49795 0,0 z m 12.56897,0.82141 c 4.28014,1.24852 -12.89462,9.37469 -7.72168,3.36807 3.63131,-1.42454 4.36855,-1.43261 7.72168,-3.36807 z m 26.69731,0.72408 c -2.63068,0.66294 1.15141,-4.31694 0,0 z m -129.11193,0.96573 c -10.96185,3.7097 -3.71844,-4.16166 0,0 z m 20.88962,-1.75459 c -4.60148,0.73355 -0.0574,-1.27939 0,0 z m 15.3437,0.66311 c -1.98913,1.3167 -1.41285,-2.63201 0,0 z m 30.55876,0.58632 c -0.97163,4.66463 -4.92523,-5.48765 0,0 z m 3.27165,-1.22941 c -6.34055,0.71942 -0.27225,-1.19082 0,0 z m 46.77058,1.39095 c -3.87253,-0.65707 -4.04601,-3.55323 0,0 z m -102.6128,0.48349 c -2.35798,2.77975 -1.63952,-5.34923 0,0 z m 38.15887,-0.38916 c -4.20707,7.20276 -4.22245,-1.68891 0,0 z m 21.43978,0.14967 c -6.08942,4.16537 2.56931,-4.70087 0,0 z m 2.71365,-0.66567 c 7.07778,2.55348 -8.12882,6.12105 0.0436,-0.73946 l -0.0436,0.73946 h -2e-5 z m 17.17758,0.50971 c -3.27018,6.1533 -1.02262,-4.20425 0,0 z m -115.75592,-0.004 c -4.26695,0.46625 1.40264,-1.30289 0,0 z m 32.04802,2.35768 c -2.20595,3.8462 -4.33069,5.04161 -7.7634,0.61817 4.9906,3.66622 7.18027,-8.00505 7.7634,-0.61817 z m 9.02195,-2.05539 c -2.87839,5.54443 -0.94664,-3.80983 0,0 z m 51.22358,-0.0679 c -2.14781,3.10069 -2.80385,-2.85518 0,0 z m 18.02944,0.40815 c 1.75531,5.57563 -4.6617,-0.37693 -0.77651,-0.79525 z m 22.58298,0.14651 c -1.52818,1.94772 -3.06328,-3.56299 0,0 z m -66.72556,3.32755 c -2.09325,4.98452 -2.50586,-9.76703 0,0 z m 41.12705,-2.4967 c -3.20095,4.90703 -1.4048,-4.45212 0,0 z m 38.84956,0.18141 c -5.56426,2.36774 -0.66569,-3.54879 0,0 z m -102.11296,-0.31779 c 1.1909,6.23937 -2.46074,4.99251 -7.00752,5.13818 3.11016,3.11504 -9.8784,-6.161 -1.54723,-1.79984 -1.27518,-3.64374 6.79944,3.96999 6.19221,-1.31229 -1.08654,-2.13923 4.38023,-3.28746 2.3624,-2.0261 z m 92.01643,-0.004 c -4.26696,0.46625 1.40264,-1.30288 0,0 z m -97.46473,1.38189 c 0.0611,3.11252 -2.19412,-3.68708 0,0 z m 13.47702,0.72245 c -1.25315,4.20618 -1.65578,-5.28873 0,0 z m 22.16297,0.18101 c -3.69801,3.38701 3.84576,-5.31327 0,0 z m 15.84063,-0.94193 c -1.77869,4.12482 -0.81059,-3.91838 0,0 z m 41.40953,-0.39294 c -2.25977,1.63509 -3.34781,-2.58365 0,0 z m -113.69135,0.51293 c -4.60148,0.73355 -0.0574,-1.27942 0,0 z m 3.51242,0.24974 c -2.03054,2.76038 -0.67037,-2.55053 0,0 z m 84.34529,1.07985 c -0.008,5.24569 -3.06993,-4.68713 0,0 z m 8.82601,-1.52861 c -3.66002,3.20375 -1.51322,-1.61438 0,0 z m 10.35238,0.72802 c -2.39407,3.42516 -2.60437,0.57895 0,0 z m -66.09256,1.60462 c 5.49665,-2.29616 9.81524,5.67386 -1.38326,0.22355 -0.411,-2.44183 2.30947,-1.31808 1.38326,-0.22355 z m 12.13654,0.64055 c -0.1682,3.83379 -6.83243,-1.73417 0,0 z m 29.10645,-0.91973 c 4.60755,1.09185 4.31695,1.62489 -1.81462,3.57157 0.34157,0.57124 -2.09312,-4.81268 1.81462,-3.57157 z m -46.40676,1.72559 c -19.90319,5.95722 1.71288,-3.59714 0,0 z m 24.94333,-0.95622 c 3.05616,6.90533 -11.78532,-2.72935 0,0 z m 15.99442,-0.15558 c -1.88932,2.65272 -1.88932,-2.65274 0,0 z m 136.03472,3.38448 c -6.59061,6.26068 -9.42346,6.79339 -1.09989,0.14178 1.32835,-1.51398 7.06699,-6.34174 2.7953,-1.8979 l -1.69543,1.75606 z M 223.513,419.58361 c 11.0809,3.60203 -8.94225,1.68226 0,0 z m 149.00035,2.58809 c -10.69431,10.06445 9.17444,-10.14178 0,0 z m -128.52629,-1.34351 c -4.26696,0.4663 1.40264,-1.30266 0,0 z m 97.83443,15.0154 c -2.74633,1.39448 -8.24388,2.28744 -1.02715,-0.64225 z m -260.746921,2.51046 c 4.33469,3.50012 -9.367131,-1.92866 0,0 z m 254.831281,-0.29137 c -2.33682,2.27072 -5.60152,-0.77746 0,0 z m -4.46852,1.38138 c -6.55484,3.11104 -28.16736,7.2415 -10.23377,2.19338 2.21939,0.0312 9.57934,-3.69432 10.23377,-2.19338 z m -238.814672,3.06712 c 15.402872,4.80365 -6.595214,0.0329 -9.291861,-2.79129 3.195494,0.33539 6.184808,2.03557 9.291861,2.79129 z m 11.646432,3.44423 c -4.601487,0.73354 -0.0574,-1.27939 0,0 z m 3.69728,0.73945 c -4.60149,0.73355 -0.0574,-1.2794 0,0 z m 7.57942,1.31541 c 10.18542,3.25183 -16.168945,-3.12701 0,0 z"
       id="path48260"
       style="stroke-width:1.47892" /></g></svg>
