<?xml version="1.0" encoding="UTF-8" standalone="no"?>
<svg
   width="50"
   height="50"
   version="1.1"
   viewBox="0 0 50.000001 50.000001"
   id="svg6"
   sodipodi:docname="search-icon.svg"
   inkscape:version="1.1 (c4e8f9ed74, 2021-05-24)"
   xmlns:inkscape="http://www.inkscape.org/namespaces/inkscape"
   xmlns:sodipodi="http://sodipodi.sourceforge.net/DTD/sodipodi-0.dtd"
   xmlns="http://www.w3.org/2000/svg"
   xmlns:svg="http://www.w3.org/2000/svg">
  <defs
     id="defs10" />
  <sodipodi:namedview
     id="namedview8"
     pagecolor="#505050"
     bordercolor="#eeeeee"
     borderopacity="1"
     inkscape:pageshadow="0"
     inkscape:pageopacity="0"
     inkscape:pagecheckerboard="0"
     showgrid="false"
     inkscape:zoom="11.92"
     inkscape:cx="24.958054"
     inkscape:cy="25"
     inkscape:window-width="2560"
     inkscape:window-height="1011"
     inkscape:window-x="0"
     inkscape:window-y="0"
     inkscape:window-maximized="1"
     inkscape:current-layer="svg6" />
  <rect
     width="50"
     height="50"
     fill-opacity="0"
     id="rect2" />
  <path
     style="fill:#ab6e24;stroke-width:0.0838926"
     d="m 6.8535018,45.550085 c 0.505657,-0.263686 1.350231,-1.079442 8.4932762,-8.20347 4.628368,-4.616045 7.355954,-7.277534 7.42939,-7.249354 0.06382,0.02449 0.41585,0.240826 0.782286,0.480747 1.369564,0.896708 3.175598,1.65562 4.8046,2.018937 0.927475,0.206854 3.104529,0.362784 4.083124,0.29245 0.946267,-0.06801 2.41797,-0.382801 3.531158,-0.755297 4.070057,-1.361926 7.440462,-4.715596 8.871813,-8.827762 C 47.189247,16.583409 44.137728,9.0382723 37.815305,5.9145628 35.783064,4.9104965 34.532636,4.557472 32.428113,4.3936346 25.137442,3.826055 18.719741,8.7812146 17.293257,16.07938 c -0.266229,1.362081 -0.266229,3.727481 0,5.089562 0.361075,1.847329 1.048995,3.559954 2.100336,5.228934 0.280851,0.445845 0.510639,0.84024 0.510639,0.876434 0,0.03619 -3.332598,3.408827 -7.405773,7.494741 -4.0731752,4.085915 -7.5746432,7.652417 -7.7810402,7.925561 -0.357806,0.473516 -0.375088,0.522313 -0.371405,1.048658 0.006,0.862221 0.35848,1.412247 1.128687,1.761425 0.449376,0.203728 1.038003,0.223105 1.378801,0.04539 z M 28.796849,29.126701 c -3.74214,-0.968996 -6.575372,-3.600094 -7.720866,-7.170027 -0.416277,-1.297327 -0.525238,-2.139894 -0.474357,-3.668083 0.07566,-2.272276 0.590196,-3.917794 1.794019,-5.737329 0.544959,-0.823686 1.821009,-2.138742 2.626036,-2.7063097 2.927631,-2.0640646 6.612017,-2.5834423 9.957082,-1.4036219 1.569109,0.5534324 2.798896,1.3330782 4.016375,2.5462516 1.307953,1.303329 2.274229,2.922129 2.755595,4.616445 0.295167,1.03893 0.381439,1.734465 0.38338,3.090849 0.0066,4.60958 -2.832268,8.586445 -7.236919,10.137946 -1.409749,0.496572 -1.952233,0.573842 -3.751352,0.534333 -1.302559,-0.0286 -1.680111,-0.06725 -2.348993,-0.240454 z"
     id="path1078" />
</svg>
