<?xml version="1.0" encoding="UTF-8" standalone="no"?>
<!-- Created with Inkscape (http://www.inkscape.org/) -->

<svg
   version="1.1"
   id="svg2"
   xml:space="preserve"
   width="550"
   height="550"
   viewBox="0 0 550 550"
   sodipodi:docname="Water Icon.svg"
   inkscape:version="1.1 (c4e8f9ed74, 2021-05-24)"
   xmlns:inkscape="http://www.inkscape.org/namespaces/inkscape"
   xmlns:sodipodi="http://sodipodi.sourceforge.net/DTD/sodipodi-0.dtd"
   xmlns="http://www.w3.org/2000/svg"
   xmlns:svg="http://www.w3.org/2000/svg"><defs
     id="defs6"><rect
       x="950.76118"
       y="214.0092"
       width="451.21121"
       height="124.52811"
       id="rect29399" /><rect
       x="120.34659"
       y="516.26733"
       width="412.04822"
       height="102.48445"
       id="rect8373" /><inkscape:path-effect
       effect="fillet_chamfer"
       id="path-effect859"
       is_visible="true"
       lpeversion="1"
       satellites_param="F,0,0,1,0,164.57701,0,1 @ F,0,0,1,0,157.49201,0,1 @ F,0,0,1,0,150.53482,0,1 @ F,0,0,1,0,148.25399,0,1"
       unit="px"
       method="auto"
       mode="F"
       radius="0"
       chamfer_steps="1"
       flexible="false"
       use_knot_distance="true"
       apply_no_radius="true"
       apply_with_radius="true"
       only_selected="false"
       hide_knots="false" /><clipPath
       clipPathUnits="userSpaceOnUse"
       id="clipPath18"><path
         d="M 0,500 H 500 V 0 H 0 Z"
         id="path16" /></clipPath></defs><sodipodi:namedview
     id="namedview4"
     pagecolor="#505050"
     bordercolor="#eeeeee"
     borderopacity="1"
     inkscape:pageshadow="0"
     inkscape:pageopacity="0"
     inkscape:pagecheckerboard="0"
     showgrid="false"
     height="550px"
     inkscape:zoom="0.89399997"
     inkscape:cx="199.66444"
     inkscape:cy="333.33334"
     inkscape:window-width="2560"
     inkscape:window-height="1011"
     inkscape:window-x="0"
     inkscape:window-y="0"
     inkscape:window-maximized="1"
     inkscape:current-layer="g8" /><g
     id="g8"
     inkscape:groupmode="layer"
     inkscape:label="mushroom-2389225"
     transform="matrix(1.3333333,0,0,-1.3333333,0,666.66667)"><path
       d="m 168.38495,91.993501 h 88.35922 A 157.49201,157.49201 45 0 1 414.23618,249.48551 V 350.44502 A 150.53482,150.53482 135 0 1 263.70136,500.97984 H 152.06193 A 148.25399,148.25399 45 0 1 3.8079419,352.72585 l 0,-96.15534 A 164.57701,164.57701 135 0 1 168.38495,91.993501 Z"
       style="fill:#00a7ff;fill-opacity:1;fill-rule:nonzero;stroke:none;stroke-width:0.81941"
       id="path10"
       inkscape:path-effect="#path-effect859"
       inkscape:original-d="M 3.8079419,91.993501 H 414.23618 V 500.97984 H 3.8079419 Z" /><text
       xml:space="preserve"
       transform="matrix(0.75000002,0,0,-0.75000002,0,500.00002)"
       id="text8371"
       style="font-style:normal;font-weight:normal;font-size:40px;line-height:1.25;font-family:sans-serif;white-space:pre;shape-inside:url(#rect8373);fill:#000000;fill-opacity:1;stroke:none" /><text
       xml:space="preserve"
       style="font-style:normal;font-weight:normal;font-size:30px;line-height:1.25;font-family:sans-serif;fill:#000000;fill-opacity:1;stroke:none;stroke-width:0.75"
       x="728.20764"
       y="-123.8301"
       id="text21953"
       transform="scale(1,-1)"><tspan
         sodipodi:role="line"
         id="tspan21951"
         style="stroke-width:0.75"
         x="728.20764"
         y="-123.8301" /></text><text
       xml:space="preserve"
       transform="matrix(0.75000002,0,0,-0.75000002,0,500.00002)"
       id="text29397"
       style="fill:black;fill-opacity:1;line-height:1.25;stroke:none;font-family:sans-serif;font-style:normal;font-weight:normal;font-size:40px;white-space:pre;shape-inside:url(#rect29399)" /><g
       fill-rule="evenodd"
       id="g31179"
       transform="matrix(0.63784174,0,0,-0.63784174,85.32104,478.09271)"><path
         d="m 396.42,363.09 c 0,105.9 -88.341,191.84 -197.19,191.84 C 90.381,554.93 0.03,468.967 2.04,363.09 4.7158,221.07 113.13,163.22 199.23,-0.01 c 91.456,157.88 197.19,257.2 197.19,363.1 z"
         stroke-width="7"
         id="path31175" /><path
         d="m 389,362.65 c 0,101.68 -84.825,184.2 -189.34,184.2 C 95.145,546.85 8.38,464.309 10.32,362.65 12.8893,226.28 116.98,170.74 199.66,14.01 287.475,165.6 389,260.97 389,362.65 Z"
         fill="#ffffff"
         stroke-linecap="square"
         stroke-linejoin="bevel"
         stroke-width="31"
         id="path31177"
         style="fill:#00a7ff;fill-opacity:1" /></g></g></svg>
