<?xml version="1.0" encoding="UTF-8" standalone="no"?>
<!-- Created with Inkscape (http://www.inkscape.org/) -->

<svg
   width="100mm"
   height="100mm"
   viewBox="0 0 100 100"
   version="1.1"
   id="svg1708"
   inkscape:version="1.1 (c4e8f9ed74, 2021-05-24)"
   sodipodi:docname="menu icon.svg"
   xmlns:inkscape="http://www.inkscape.org/namespaces/inkscape"
   xmlns:sodipodi="http://sodipodi.sourceforge.net/DTD/sodipodi-0.dtd"
   xmlns="http://www.w3.org/2000/svg"
   xmlns:svg="http://www.w3.org/2000/svg">
  <sodipodi:namedview
     id="namedview1710"
     pagecolor="#505050"
     bordercolor="#eeeeee"
     borderopacity="1"
     inkscape:pageshadow="0"
     inkscape:pageopacity="0"
     inkscape:pagecheckerboard="0"
     inkscape:document-units="mm"
     showgrid="false"
     inkscape:zoom="1.0618967"
     inkscape:cx="370.56334"
     inkscape:cy="189.28394"
     inkscape:window-width="2560"
     inkscape:window-height="1011"
     inkscape:window-x="0"
     inkscape:window-y="0"
     inkscape:window-maximized="1"
     inkscape:current-layer="layer1" />
  <defs
     id="defs1705">
    <inkscape:path-effect
       effect="fillet_chamfer"
       id="path-effect3170"
       is_visible="true"
       lpeversion="1"
       satellites_param="F,0,0,1,0,6.8801548,0,1 @ F,0,0,1,0,6.1462976,0,1 @ F,0,0,1,0,6.5151728,0,1 @ F,0,0,1,0,7.2120451,0,1"
       unit="px"
       method="auto"
       mode="F"
       radius="0"
       chamfer_steps="1"
       flexible="false"
       use_knot_distance="true"
       apply_no_radius="true"
       apply_with_radius="true"
       only_selected="false"
       hide_knots="false" />
    <inkscape:path-effect
       effect="fillet_chamfer"
       id="path-effect3151"
       is_visible="true"
       lpeversion="1"
       satellites_param="F,0,0,1,0,6.8801548,0,1 @ F,0,0,1,0,6.1462976,0,1 @ F,0,0,1,0,6.5151728,0,1 @ F,0,0,1,0,7.2120451,0,1"
       unit="px"
       method="auto"
       mode="F"
       radius="0"
       chamfer_steps="1"
       flexible="false"
       use_knot_distance="true"
       apply_no_radius="true"
       apply_with_radius="true"
       only_selected="false"
       hide_knots="false" />
    <inkscape:path-effect
       effect="fillet_chamfer"
       id="path-effect3018"
       is_visible="true"
       lpeversion="1"
       satellites_param="F,0,0,1,0,6.8801548,0,1 @ F,0,0,1,0,6.1462976,0,1 @ F,0,0,1,0,6.5151728,0,1 @ F,0,0,1,0,7.2120451,0,1"
       unit="px"
       method="auto"
       mode="F"
       radius="0"
       chamfer_steps="1"
       flexible="false"
       use_knot_distance="true"
       apply_no_radius="true"
       apply_with_radius="true"
       only_selected="false"
       hide_knots="false" />
  </defs>
  <g
     inkscape:label="Layer 1"
     inkscape:groupmode="layer"
     id="layer1">
    <path
       style="fill:#ab6e24;stroke-width:12.3825;stroke-miterlimit:4;stroke-dasharray:none"
       id="rect2917"
       width="77.423882"
       height="13.495577"
       x="12.040272"
       y="17.706009"
       inkscape:path-effect="#path-effect3018"
       d="m 18.920427,17.706009 h 64.397429 a 6.1462976,6.1462976 45 0 1 6.146297,6.146298 v 0.834106 A 6.5151728,6.5151728 135 0 1 82.94898,31.201586 H 19.252317 a 7.2120451,7.2120451 45 0 1 -7.212045,-7.212045 6.5886001,6.5886001 137.59506 0 1 6.880155,-6.283532 z"
       sodipodi:type="rect" />
    <path
       style="fill:#ab6e24;stroke-width:12.3825;stroke-miterlimit:4;stroke-dasharray:none"
       id="rect2917-5"
       width="77.423882"
       height="13.495577"
       x="12.040272"
       y="41.353672"
       inkscape:path-effect="#path-effect3151"
       sodipodi:type="rect"
       d="m 18.920427,41.353672 64.397429,0 a 6.1462976,6.1462976 45 0 1 6.146297,6.146298 v 0.834106 A 6.5151728,6.5151728 135 0 1 82.94898,54.849249 H 19.252317 a 7.2120451,7.2120451 45 0 1 -7.212045,-7.212045 6.5886001,6.5886001 137.59506 0 1 6.880155,-6.283532 z" />
    <path
       style="fill:#ab6e24;stroke-width:12.3825;stroke-miterlimit:4;stroke-dasharray:none"
       id="rect2917-9"
       width="77.423882"
       height="13.495577"
       x="12.040272"
       y="65.001335"
       inkscape:path-effect="#path-effect3170"
       sodipodi:type="rect"
       d="m 18.920427,65.001335 h 64.397429 a 6.1462976,6.1462976 45 0 1 6.146297,6.146298 v 0.834106 A 6.5151728,6.5151728 135 0 1 82.94898,78.496912 H 19.252317 a 7.2120451,7.2120451 45 0 1 -7.212045,-7.212045 6.5886001,6.5886001 137.59506 0 1 6.880155,-6.283532 z" />
  </g>
</svg>
